/* XPM */
static char * arbres_xpm[] = {
"38 32 6 1",
"	c #000000",
".	c #3C5956",
"+	c #71AA34",
"@	c #397B44",
"#	c #5E3643",
"$	c #7A444A",
"                                      ",
"     ....      ...       ...          ",
"    .++@@.   ..++@..   ..++@.         ",
"    .++@@.   ..++@..   ..++@.         ",
"  ..+++@@@. .++++@@@. .++++@@..       ",
" ++++++++@   +++++@@   +++++@         ",
" @++@@    ...  @    ...  @   ....     ",
" @  @ +  .++@.. + ..++@.. + .+++@.    ",
" @  @ +  .++@.. + ..++@.. + .+++@.    ",
" ...   ..+++@@@. .++++@@@. .++++@@..  ",
"  ...    ++++@@   +++++@@   +++++@  . ",
"     .... @    ...  @    ... @@   @@. ",
"    .++@@. + ..++@.. + ..++@.  +@@@@. ",
"    .++@@. + ..++@.. + ..++@.  +@@@@. ",
"  ..+++@@@. .++++@@@. .++++@@.. @ ... ",
" ++++++++@ +++++++@@ . +++++@  .  ..  ",
" @++@@      +@@@       @@@            ",
" @  @ +  ... @@ + .... @@ + ....      ",
" ...   ..++@.    .+++@.    .+++@.     ",
" ...   ..++@.    .+++@.    .+++@.     ",
"  ... .++++@@.. .++++@@.. .++++@@.    ",
"     +++++++@  +++++++@  . +++++@ ..  ",
"     @+@@@     @+@@@   @@. @@    @..  ",
"     @ @@ +@@  @ @  +@@@@. @ ++@@@..  ",
"     @ @@ +@@  @ @  +@@@@. @ ++@@@..  ",
"     ..    @   ..    @ ...     @ ...  ",
"      ...    .. ..     .. ..     .    ",
"         ##       ###       ###       ",
"         ##       ###       ###       ",
"         ##       ###       ###       ",
"         $$       $$$       $$$       ",
"                                      "};
