/* XPM */
static char * Sans titre_xpm[] = {
"32 32 2 1",
" 	c #71AA34",
".	c #397B44",
"                                ",
" ..              ..             ",
"                           .    ",
"             ..     ..     .    ",
"                                ",
"    ..                          ",
"                                ",
"         .            .         ",
"              .       .         ",
"                  .             ",
"                           .    ",
"      ..                        ",
"            .       ..          ",
" .          .                   ",
" .                          ..  ",
"                                ",
"                                ",
"                  ..            ",
"   .                     .      ",
"   .       ..                   ",
"                                ",
"                                ",
" .                .      ..     ",
" .   .   ..       .             ",
"     .                          ",
"                                ",
"                                ",
"                    .     .     ",
"             ..           .     ",
"  ..                         .  ",
"        ..                   .  ",
"                                "};
