/* XPM */
static char * ermango_xpm[] = {
"24 27 399 2",
"  	c #000000",
". 	c #372D2B",
"+ 	c #27221F",
"@ 	c #261C1A",
"# 	c #251D1B",
"$ 	c #201B17",
"% 	c #352E26",
"& 	c #5F6740",
"* 	c #261F15",
"= 	c #6D783C",
"- 	c #364119",
"; 	c #4E5931",
"> 	c #3C4621",
", 	c #505E21",
"' 	c #465713",
") 	c #131200",
"! 	c #49542C",
"~ 	c #3A3329",
"{ 	c #201A0A",
"] 	c #3C431A",
"^ 	c #494F29",
"/ 	c #41500D",
"( 	c #859556",
"_ 	c #7B8A49",
": 	c #414C22",
"< 	c #505F1C",
"[ 	c #3D3630",
"} 	c #3D4D20",
"| 	c #201815",
"1 	c #38391A",
"2 	c #271C16",
"3 	c #1E130D",
"4 	c #291E1C",
"5 	c #435022",
"6 	c #788649",
"7 	c #778547",
"8 	c #56632D",
"9 	c #302923",
"0 	c #2B221D",
"a 	c #E07B2D",
"b 	c #D57123",
"c 	c #C76617",
"d 	c #D87728",
"e 	c #D36F23",
"f 	c #E27D35",
"g 	c #362B25",
"h 	c #312A22",
"i 	c #2D291E",
"j 	c #1F1B10",
"k 	c #58633B",
"l 	c #4C542F",
"m 	c #3B342C",
"n 	c #1E150E",
"o 	c #CA7010",
"p 	c #DD7520",
"q 	c #C05A05",
"r 	c #C35B06",
"s 	c #EA822D",
"t 	c #C7610C",
"u 	c #EC8332",
"v 	c #D4672C",
"w 	c #241D13",
"x 	c #27201A",
"y 	c #3B4520",
"z 	c #2D261E",
"A 	c #372D24",
"B 	c #CE6A14",
"C 	c #BA5500",
"D 	c #BE5601",
"E 	c #CC640F",
"F 	c #423000",
"G 	c #3B461E",
"H 	c #485A30",
"I 	c #DC7121",
"J 	c #CF612E",
"K 	c #261D16",
"L 	c #2C231A",
"M 	c #1D1610",
"N 	c #312622",
"O 	c #322F2A",
"P 	c #321200",
"Q 	c #D97829",
"R 	c #E28027",
"S 	c #E98E3D",
"T 	c #231B19",
"U 	c #2D2926",
"V 	c #352621",
"W 	c #4D562B",
"X 	c #EB802E",
"Y 	c #AD3D0D",
"Z 	c #8C563C",
"` 	c #2D2620",
" .	c #D96E1E",
"..	c #BD4E20",
"+.	c #D76533",
"@.	c #B44412",
"#.	c #DC7320",
"$.	c #E17E2B",
"%.	c #BD4A1D",
"&.	c #C85A27",
"*.	c #C75725",
"=.	c #E47927",
"-.	c #DC741F",
";.	c #CF6915",
">.	c #D15D2A",
",.	c #3D3832",
"'.	c #CE6311",
").	c #2D2322",
"!.	c #302720",
"~.	c #E37621",
"{.	c #F98A38",
"].	c #35302A",
"^.	c #352C2D",
"/.	c #241E12",
"(.	c #C9600D",
"_.	c #D16914",
":.	c #D86C21",
"<.	c #2D241F",
"[.	c #C96311",
"}.	c #DF7829",
"|.	c #FFF9F5",
"1.	c #211A14",
"2.	c #CC5600",
"3.	c #D16B16",
"4.	c #F18934",
"5.	c #2B221B",
"6.	c #201C10",
"7.	c #C25705",
"8.	c #DF7424",
"9.	c #D06813",
"0.	c #DA7026",
"a.	c #CA5A28",
"b.	c #211813",
"c.	c #CE6814",
"d.	c #AD5606",
"e.	c #1C0000",
"f.	c #F48C37",
"g.	c #DE7522",
"h.	c #C05E17",
"i.	c #DE7825",
"j.	c #CC6310",
"k.	c #D46A1E",
"l.	c #45372C",
"m.	c #221713",
"n.	c #2A2722",
"o.	c #E47B28",
"p.	c #2D2824",
"q.	c #C2530B",
"r.	c #DA741F",
"s.	c #EB8227",
"t.	c #C45422",
"u.	c #EE8532",
"v.	c #D96F1B",
"w.	c #DE7621",
"x.	c #BB4F21",
"y.	c #BF5130",
"z.	c #363533",
"A.	c #29211E",
"B.	c #2E2D29",
"C.	c #F38B36",
"D.	c #D7711C",
"E.	c #E98432",
"F.	c #4D0900",
"G.	c #CC5D2F",
"H.	c #D6642E",
"I.	c #2C2A1E",
"J.	c #E37B26",
"K.	c #D56B1F",
"L.	c #DB731E",
"M.	c #BC5700",
"N.	c #2F3420",
"O.	c #1F2120",
"P.	c #595B5A",
"Q.	c #34332F",
"R.	c #272621",
"S.	c #DF7722",
"T.	c #EA842F",
"U.	c #523523",
"V.	c #3E2717",
"W.	c #564332",
"X.	c #320F00",
"Y.	c #422408",
"Z.	c #CB661E",
"`.	c #DF7136",
" +	c #D26A15",
".+	c #311D12",
"++	c #984A34",
"@+	c #434544",
"#+	c #313332",
"$+	c #343635",
"%+	c #221B13",
"&+	c #21170E",
"*+	c #332C26",
"=+	c #28261A",
"-+	c #CC610F",
";+	c #F08533",
">+	c #9E3D1D",
",+	c #DF7422",
"'+	c #E87F2C",
")+	c #EF8537",
"!+	c #FA913E",
"~+	c #2E241A",
"{+	c #C9610C",
"]+	c #CE602D",
"^+	c #4E433D",
"/+	c #3B3132",
"(+	c #272727",
"_+	c #5B5D5C",
":+	c #3C4846",
"<+	c #BF472E",
"[+	c #392F2D",
"}+	c #1F1E19",
"|+	c #E67924",
"1+	c #CD630B",
"2+	c #2A1F1D",
"3+	c #B03D06",
"4+	c #C15805",
"5+	c #CC620E",
"6+	c #E07F4A",
"7+	c #241B12",
"8+	c #2D1F16",
"9+	c #AD5235",
"0+	c #E47C27",
"a+	c #D36B16",
"b+	c #D76E1D",
"c+	c #C0511A",
"d+	c #281B15",
"e+	c #C03F2A",
"f+	c #352C27",
"g+	c #464646",
"h+	c #2C222A",
"i+	c #C14521",
"j+	c #29251C",
"k+	c #2A1D17",
"l+	c #211610",
"m+	c #DF7623",
"n+	c #C8602D",
"o+	c #DA7144",
"p+	c #E97F31",
"q+	c #D9711C",
"r+	c #D36D18",
"s+	c #DE7227",
"t+	c #F68A42",
"u+	c #C03100",
"v+	c #372018",
"w+	c #B44E35",
"x+	c #26211D",
"y+	c #3B3736",
"z+	c #2D2C28",
"A+	c #C85E2A",
"B+	c #411300",
"C+	c #F68B43",
"D+	c #BE4F1A",
"E+	c #C75821",
"F+	c #C35516",
"G+	c #B3460E",
"H+	c #18130D",
"I+	c #282627",
"J+	c #261E1C",
"K+	c #B64710",
"L+	c #C05119",
"M+	c #B2430E",
"N+	c #BF501B",
"O+	c #302825",
"P+	c #312926",
"Q+	c #494748",
"R+	c #302F2D",
"S+	c #2F2F2F",
"T+	c #202020",
"U+	c #2A2829",
"V+	c #262221",
"W+	c #E67E29",
"X+	c #C8592C",
"Y+	c #3A352F",
"Z+	c #453E36",
"`+	c #DD6A33",
" @	c #CC642F",
".@	c #484A49",
"+@	c #2F3130",
"@@	c #424443",
"#@	c #3D3C37",
"$@	c #A45131",
"%@	c #3B1508",
"&@	c #342D27",
"*@	c #231E1A",
"=@	c #3A3A3A",
"-@	c #22251C",
";@	c #E4C680",
">@	c #4F4E4C",
",@	c #363636",
"'@	c #333333",
")@	c #383A39",
"!@	c #29190A",
"~@	c #DA7420",
"{@	c #E17825",
"]@	c #C75926",
"^@	c #2E2A21",
"/@	c #1C1210",
"(@	c #2A231D",
"_@	c #752C0B",
":@	c #292019",
"<@	c #3F4140",
"[@	c #1E201F",
"}@	c #000002",
"|@	c #2F261F",
"1@	c #281F16",
"2@	c #3C3E3D",
"3@	c #494B4A",
"4@	c #2B2D2C",
"5@	c #444444",
"6@	c #585858",
"7@	c #3C3C3C",
"8@	c #383637",
"9@	c #453E38",
"0@	c #BE5406",
"a@	c #E17E23",
"b@	c #E17B26",
"c@	c #C35822",
"d@	c #2A261D",
"e@	c #252525",
"f@	c #353736",
"g@	c #3A3C3B",
"h@	c #404143",
"i@	c #414342",
"j@	c #535554",
"k@	c #393939",
"l@	c #2B2B2B",
"m@	c #191919",
"n@	c #261F19",
"o@	c #BF4F1D",
"p@	c #963816",
"q@	c #AB400A",
"r@	c #29221A",
"s@	c #2C251F",
"t@	c #282119",
"u@	c #444341",
"v@	c #494846",
"w@	c #3D3C3A",
"x@	c #1A1917",
"y@	c #272624",
"z@	c #393836",
"A@	c #242321",
"B@	c #3E3E3C",
"C@	c #3D3D3B",
"D@	c #2B241E",
"E@	c #241A18",
"F@	c #1B221B",
"G@	c #A43700",
"H@	c #CA612A",
"I@	c #26211E",
"J@	c #251C17",
"K@	c #414244",
"L@	c #251E16",
"M@	c #483F38",
"N@	c #251A14",
"O@	c #1C150F",
"P@	c #2C251D",
"Q@	c #28211B",
"R@	c #101010",
"S@	c #4E4C4D",
"T@	c #272526",
"U@	c #070000",
"V@	c #B8563D",
"W@	c #AB4C30",
"X@	c #9D3E22",
"Y@	c #3C2015",
"Z@	c #373536",
"`@	c #413C38",
" #	c #403B37",
".#	c #3A3531",
"+#	c #535353",
"@#	c #D16C50",
"##	c #A6422A",
"$#	c #C46046",
"%#	c #972B0E",
"&#	c #BC3823",
"*#	c #130600",
"=#	c #231514",
"-#	c #631D03",
";#	c #6A2209",
">#	c #6E260D",
",#	c #853011",
"'#	c #DD5E3D",
")#	c #28231D",
"!#	c #C84C2A",
"~#	c #591800",
"{#	c #7A381E",
"]#	c #7A371C",
"^#	c #67240A",
"/#	c #77331C",
"(#	c #403531",
"_#	c #2E271F",
":#	c #2A231B",
"<#	c #39322C",
"[#	c #231C16",
"}#	c #362F29",
"|#	c #2F2820",
"1#	c #201913",
"2#	c #2C281D",
"                              . + @ # $         ",
"                    % & *   = - ; > , ' )       ",
"                      ! ~ { ] ^ / ( _ : < [     ",
"                      } | 1 2 3 4 5 6 7 8 9     ",
"              0 a b c d e f g h     i j k l m   ",
"            n o p p q r s t u v w       x y z   ",
"          A B C p D E p F G H I J K       L M   ",
"          N O P Q R S T U V W X Y Z             ",
"        `  ...+.@.#.$.%.&.*.=.-.;.>.,.          ",
"        9 '.).x !.~.{.].^./.(._.p :.<.          ",
"        [.}.|.1.2.3.4.5.6.|.7.8.9.0.a.b.        ",
"        ;.c.d.e.p f.g.p h.i.p j.p k.l.m.        ",
"      n.p o.p.q.r.s.t.u.v.p p w.p x.y.z.A.      ",
"      B.C.D.E.F.G.H.I.J.K.L.p p M.N.O.P.Q.      ",
"      R.q S.T.U.V.W.X.Y.Z.`.p  +.+++@+#+$+  %+  ",
"  &+*+=+-+;+>+,+ +'+)+!+~+{+p ]+^+/+(+_+:+<+[+  ",
"}+|+1+2+3+4+5+6+7+8+9+0+a+b+c+d+e+f+g+h+i+j+k+l+",
"m+f.g n+` o+p+p q+r+q+s+t+u+v+w+x+y+z+A+B+C+D+% ",
"E+F+G+H+I+B.J+a.K+L+M+N+O+P+Q+R+S+T+U+V+W+L.X+Y+",
"Z+`+ @L .@+@@@#@$@%@&@*@=@-@;@>@,@'@)@!@~@{@]@^@",
"/@(@_@:@<@[@$+}@|@1@2@3@4@5@.@6@7@8@9@0@a@b@c@d@",
"      K e@f@g@h@@@+@i@i@j@#+k@S+l@m@n@o@p@c+q@r@",
"        s@t@u@v@w@x@y@z@A@B@C@D@$ E@5.F@G@H@I@  ",
"        J@K@L@L@M@N@O@D@P@w Q@R@T+S@T@|@z L@    ",
"      U@V@W@X@Y@Z@`@p. #p..#+#@###$#%#&#*#      ",
"      =#-#;#>#,#'#)#        !#~#{#]#^#/#(#      ",
"      _#<.:#<#n@*+[#        x }#|#[#}#1#2#      "};
