/* XPM */
static char * hole_xpm[] = {
"37 32 4 1",
" 	c #000000",
".	c #71AA34",
"+	c #397B44",
"@	c #3C5956",
"            ...........              ",
"            ...........              ",
"         ...++@@@@@@@+++++++         ",
"         ...++@@@@@@@+++++++         ",
"         ...++@@@@@@@+++++++         ",
"       ..+++@@@@@@@@@@@@@+++..       ",
"       ..+++@@@@@@@@@@@@@+++..       ",
"     ..++@@@@@         @@@@@++..     ",
"     ..++@@@@@         @@@@@++..     ",
"  ...++++@@@                ++++...  ",
"  ...++++@@@                ++++...  ",
"  ...++@@                     ++...  ",
"  ...++@@                     ++...  ",
"  ...++@@                     ++...  ",
"++...++                       +++++++",
"++...++                       +++++++",
"++...@@                       +++++++",
"++...@@                       +++++++",
"+++++@@                     ++..+++  ",
"+++++@@                     ++..+++  ",
"+++++@@                     ++..+++  ",
"  +++@@                  +++....+++  ",
"  +++@@                  +++....+++  ",
"  +++++++              ++.....++@@@  ",
"  +++++++              ++.....++@@@  ",
"     +++++++         ++..+++++@@     ",
"     +++++++         ++..+++++@@     ",
"         ++++++++++++++++@@@         ",
"         ++++++++++++++++@@@         ",
"         ++++++++++++++++@@@         ",
"              +++++++@@              ",
"              +++++++@@              "};
