/* XPM */
static char * mango2_xpm[] = {
"32 32 159 2",
" 	c #000000",
". 	c #44190C",
"+ 	c #43180D",
"@ 	c #40180D",
"# 	c #40180B",
"$ 	c #40170B",
"% 	c #471B0F",
"& 	c #441A0F",
"* 	c #3C6630",
"= 	c #588F39",
"- 	c #578F39",
"; 	c #589039",
"> 	c #3F180D",
", 	c #3F170E",
"' 	c #471B0E",
") 	c #427035",
"! 	c #3A612F",
"~ 	c #3A5F2E",
"{ 	c #3A602F",
"] 	c #589239",
"^ 	c #569038",
"/ 	c #3E170C",
"( 	c #3E150C",
"_ 	c #4B1B11",
": 	c #4A1C0F",
"< 	c #491C0F",
"[ 	c #49190F",
"} 	c #451B0E",
"| 	c #451A0D",
"1 	c #39622E",
"2 	c #38602E",
"3 	c #39602F",
"4 	c #3D170D",
"5 	c #4C1C0F",
"6 	c #4B1C0F",
"7 	c #FE9038",
"8 	c #FE9037",
"9 	c #FF8F39",
"0 	c #FD9237",
"a 	c #481B10",
"b 	c #461B10",
"c 	c #47180E",
"d 	c #42160D",
"e 	c #41190D",
"f 	c #42180D",
"g 	c #41180D",
"h 	c #4C1B10",
"i 	c #FE923A",
"j 	c #FD9339",
"k 	c #FE9039",
"l 	c #FE9239",
"m 	c #FF903A",
"n 	c #FF8F38",
"o 	c #D95B2E",
"p 	c #D6592C",
"q 	c #47190E",
"r 	c #FF9339",
"s 	c #FF9337",
"t 	c #E6B63E",
"u 	c #E68334",
"v 	c #FF913A",
"w 	c #FF9238",
"x 	c #FF9338",
"y 	c #DB5C2F",
"z 	c #D65A2C",
"A 	c #44160D",
"B 	c #531D0F",
"C 	c #FED14E",
"D 	c #FE9339",
"E 	c #FECA42",
"F 	c #FD8236",
"G 	c #FE933A",
"H 	c #FF923B",
"I 	c #FF9239",
"J 	c #FD9138",
"K 	c #FF923A",
"L 	c #D85A2F",
"M 	c #FF8340",
"N 	c #4F1A0C",
"O 	c #4D1C11",
"P 	c #FD9338",
"Q 	c #FF9139",
"R 	c #FF933A",
"S 	c #FF9138",
"T 	c #D7592C",
"U 	c #44180E",
"V 	c #4C1B0F",
"W 	c #FF9236",
"X 	c #FE943A",
"Y 	c #FF9039",
"Z 	c #FF9237",
"` 	c #D85B2C",
" .	c #4C1C11",
"..	c #FD9239",
"+.	c #FE9139",
"@.	c #FE9439",
"#.	c #FF933B",
"$.	c #D95A2D",
"%.	c #D85B2E",
"&.	c #4B1D10",
"*.	c #FFC541",
"=.	c #D9592E",
"-.	c #D75A2D",
";.	c #431A0E",
">.	c #FEC641",
",.	c #FFBB3D",
"'.	c #D85A2D",
").	c #45170C",
"!.	c #4A1C10",
"~.	c #FFC743",
"{.	c #FFBA3C",
"].	c #FFBD3C",
"^.	c #DA5B2F",
"/.	c #D75A2E",
"(.	c #44190E",
"_.	c #4C1D10",
":.	c #FEC341",
"<.	c #FFC341",
"[.	c #FFC140",
"}.	c #FE903A",
"|.	c #FE9138",
"1.	c #FFBA3D",
"2.	c #FFBA3B",
"3.	c #D95C2D",
"4.	c #4C1F10",
"5.	c #FFC441",
"6.	c #FFC340",
"7.	c #FF9038",
"8.	c #FF8D38",
"9.	c #FFBB3E",
"0.	c #FFBC3D",
"a.	c #D85B2D",
"b.	c #471A0F",
"c.	c #4D1F12",
"d.	c #FFC442",
"e.	c #FFC440",
"f.	c #FFC33E",
"g.	c #FFC23F",
"h.	c #FFC13E",
"i.	c #FFC23D",
"j.	c #FFBC3C",
"k.	c #DA5D2D",
"l.	c #4A1B0F",
"m.	c #4B1F12",
"n.	c #FFC540",
"o.	c #FFC83F",
"p.	c #FEC441",
"q.	c #FFC43E",
"r.	c #DF5F30",
"s.	c #DD5C30",
"t.	c #4B1A0F",
"u.	c #150706",
"v.	c #150707",
"w.	c #160808",
"x.	c #140706",
"y.	c #140807",
"z.	c #130606",
"A.	c #140705",
"B.	c #120504",
"                                                                ",
"                                                                ",
"                                                                ",
"                                                                ",
"                                                                ",
"                                                                ",
"                                  . + @ # $                     ",
"                                % & * = - ; > ,                 ",
"                                ' ) ! ~ { ; ] ^ / (             ",
"                          _ : < [ } | 1 ! 2 ~ 3 4               ",
"                      5 6 7 8 9 0 a b c d e f g                 ",
"                    h i j 9 k l m n o p q                       ",
"                  : r s t u v w r v x y z A                     ",
"                B C D E F l G H I J K K L M N                   ",
"                O I P Q R I w Q v Q Q S o T U                   ",
"                V I K W X S v l Y Z G K ` T +                   ",
"                 ...R i R Z +.+.K @.#.K $.%.+                   ",
"                &.*.7 I D K l K S Q l o =.-.;.                  ",
"                _ >.I Z H H K S I l ,.o '.).                    ",
"                !.~.*.#.H I m S v {.].^./.(.                    ",
"              _.:.<.[.G 9 }.9 |.1.2.3.$.U                       ",
"              4.[.5.<.6.Q 7.8.9.0.a.L b.                        ",
"              c.d.e.6.f.g.h.i.j.k.$.l.                          ",
"                m.n.o.p.:.q.].r.s.t.                            ",
"                  u.v.w.x.y.z.A.B.                              ",
"                                                                ",
"                                                                ",
"                                                                ",
"                                                                ",
"                                                                ",
"                                                                ",
"                                                                "};
