/* XPM */
static char * mango_xpm[] = {
"32 32 909 2",
"  	c #AEACA9",
". 	c #A9A7A5",
"+ 	c #A5A4A1",
"@ 	c #A3A29E",
"# 	c #A2A09B",
"$ 	c #9E9E96",
"% 	c #9F9D98",
"& 	c #9D9992",
"* 	c #9D998E",
"= 	c #9D978A",
"- 	c #9E9689",
"; 	c #9E9388",
"> 	c #9F9487",
", 	c #9E9486",
"' 	c #9E9185",
") 	c #9C9085",
"! 	c #9E9083",
"~ 	c #9C8E81",
"{ 	c #9C9081",
"] 	c #9D8E82",
"^ 	c #9C9083",
"/ 	c #9E9084",
"( 	c #9D9288",
"_ 	c #9D938A",
": 	c #9D968D",
"< 	c #9F9A92",
"[ 	c #A09D97",
"} 	c #A0A09A",
"| 	c #A3A19E",
"1 	c #A6A5A1",
"2 	c #ABABA9",
"3 	c #A9A9A7",
"4 	c #A5A39F",
"5 	c #9E9E9A",
"6 	c #9B9795",
"7 	c #989691",
"8 	c #94938D",
"9 	c #93928C",
"0 	c #938F88",
"a 	c #928C84",
"b 	c #938A80",
"c 	c #948B7F",
"d 	c #93897E",
"e 	c #938A7D",
"f 	c #92887A",
"g 	c #93887B",
"h 	c #928679",
"i 	c #928578",
"j 	c #918477",
"k 	c #918376",
"l 	c #938276",
"m 	c #928478",
"n 	c #93867A",
"o 	c #92877C",
"p 	c #938B7E",
"q 	c #938D82",
"r 	c #949086",
"s 	c #96928C",
"t 	c #979690",
"u 	c #9B9894",
"v 	c #9D9D9A",
"w 	c #A19F9F",
"x 	c #A9A8A6",
"y 	c #A5A5A2",
"z 	c #9F9E9D",
"A 	c #999894",
"B 	c #928F8D",
"C 	c #8D8D88",
"D 	c #8B8883",
"E 	c #87867F",
"F 	c #87847B",
"G 	c #878079",
"H 	c #867E74",
"I 	c #877F73",
"J 	c #887E72",
"K 	c #877D70",
"L 	c #897D70",
"M 	c #887C6E",
"N 	c #87786B",
"O 	c #887668",
"P 	c #887469",
"Q 	c #867869",
"R 	c #88786B",
"S 	c #877B6C",
"T 	c #887F73",
"U 	c #898277",
"V 	c #8A847B",
"W 	c #8C887F",
"X 	c #908C86",
"Y 	c #92908B",
"Z 	c #969794",
"` 	c #9C9C98",
" .	c #A3A3A1",
"..	c #A2A39E",
"+.	c #9B9A96",
"@.	c #92938D",
"#.	c #898A84",
"$.	c #86847D",
"%.	c #7F7F78",
"&.	c #7E7D75",
"*.	c #7C7A70",
"=.	c #7A776E",
"-.	c #7B7569",
";.	c #7B7467",
">.	c #7C7365",
",.	c #7E7365",
"'.	c #7F7163",
").	c #7D6F61",
"!.	c #7C6D5E",
"~.	c #7D685C",
"{.	c #7D695A",
"].	c #7D6A5C",
"^.	c #7E6B5D",
"/.	c #7E6E60",
"(.	c #7D7062",
"_.	c #7F7366",
":.	c #7F766B",
"<.	c #817C6E",
"[.	c #868074",
"}.	c #87847C",
"|.	c #8C8B86",
"1.	c #91908C",
"2.	c #A0A09E",
"3.	c #A19F9A",
"4.	c #8F8D86",
"5.	c #84837D",
"6.	c #7A786E",
"7.	c #76726C",
"8.	c #736F65",
"9.	c #726D63",
"0.	c #716B5D",
"a.	c #72675B",
"b.	c #74695A",
"c.	c #746859",
"d.	c #766858",
"e.	c #766756",
"f.	c #776454",
"g.	c #755F4F",
"h.	c #755A4B",
"i.	c #745A49",
"j.	c #775D4B",
"k.	c #765E4D",
"l.	c #766050",
"m.	c #766353",
"n.	c #776758",
"o.	c #786C5B",
"p.	c #7B7263",
"q.	c #7D766A",
"r.	c #817D72",
"s.	c #86827D",
"t.	c #93948F",
"u.	c #9E9D99",
"v.	c #92918C",
"w.	c #898682",
"x.	c #807E79",
"y.	c #77776F",
"z.	c #726F68",
"A.	c #6F6C63",
"B.	c #6C665D",
"C.	c #6D6559",
"D.	c #6B6354",
"E.	c #6B6052",
"F.	c #6D604F",
"G.	c #705E4E",
"H.	c #715F4B",
"I.	c #735D4B",
"J.	c #715A46",
"K.	c #705240",
"L.	c #6C4A38",
"M.	c #6A4937",
"N.	c #6D4B37",
"O.	c #6B4B39",
"P.	c #6A4C3C",
"Q.	c #6D5442",
"R.	c #705948",
"S.	c #736555",
"T.	c #776E60",
"U.	c #7A766B",
"V.	c #807D75",
"W.	c #868680",
"X.	c #8F8F8B",
"Y.	c #9A9B96",
"Z.	c #9B9B95",
"`.	c #8F8F88",
" +	c #85867C",
".+	c #7D7973",
"++	c #737169",
"@+	c #6E6B61",
"#+	c #6A655B",
"$+	c #686155",
"%+	c #675E50",
"&+	c #695B4C",
"*+	c #695949",
"=+	c #6B5847",
"-+	c #6D5843",
";+	c #6F5543",
">+	c #70543F",
",+	c #6C4C3A",
"'+	c #673F2F",
")+	c #44190C",
"!+	c #43180D",
"~+	c #40180D",
"{+	c #40180B",
"]+	c #40170B",
"^+	c #623F2E",
"/+	c #664634",
"(+	c #674E3D",
"_+	c #6B5846",
":+	c #716456",
"<+	c #766D62",
"[+	c #7C796F",
"}+	c #84817A",
"|+	c #8C8C86",
"1+	c #999692",
"2+	c #999892",
"3+	c #8E8B85",
"4+	c #83817B",
"5+	c #79786F",
"6+	c #716E65",
"7+	c #69665D",
"8+	c #666155",
"9+	c #655B4F",
"0+	c #65574A",
"a+	c #675746",
"b+	c #6A5443",
"c+	c #6D543F",
"d+	c #6E503C",
"e+	c #714E3B",
"f+	c #6F4B37",
"g+	c #6A4331",
"h+	c #471B0F",
"i+	c #441A0F",
"j+	c #3C6630",
"k+	c #588F39",
"l+	c #578F39",
"m+	c #589039",
"n+	c #3F180D",
"o+	c #3F170E",
"p+	c #5D3B2C",
"q+	c #634836",
"r+	c #6D5A4D",
"s+	c #736B5C",
"t+	c #818079",
"u+	c #8A8A84",
"v+	c #959793",
"w+	c #999791",
"x+	c #8D8B82",
"y+	c #838077",
"z+	c #77766C",
"A+	c #6F6A62",
"B+	c #6A6559",
"C+	c #655E50",
"D+	c #66584A",
"E+	c #655545",
"F+	c #6A523F",
"G+	c #6E503A",
"H+	c #6E4C38",
"I+	c #6E4432",
"J+	c #70432F",
"K+	c #70442E",
"L+	c #6B3E2B",
"M+	c #471B0E",
"N+	c #427035",
"O+	c #3A612F",
"P+	c #3A5F2E",
"Q+	c #3A602F",
"R+	c #589239",
"S+	c #569038",
"T+	c #3E170C",
"U+	c #3E150C",
"V+	c #695345",
"W+	c #74695C",
"X+	c #7A746B",
"Y+	c #817F77",
"Z+	c #8B8A84",
"`+	c #969792",
" @	c #97958E",
".@	c #8C8980",
"+@	c #827F75",
"@@	c #78736A",
"#@	c #6E6A5F",
"$@	c #6A6256",
"%@	c #685C4E",
"&@	c #675647",
"*@	c #685241",
"=@	c #6C4D3A",
"-@	c #6C4431",
";@	c #6E3F2C",
">@	c #713E29",
",@	c #4B1B11",
"'@	c #4A1C0F",
")@	c #491C0F",
"!@	c #49190F",
"~@	c #451B0E",
"{@	c #451A0D",
"]@	c #39622E",
"^@	c #38602E",
"/@	c #39602F",
"(@	c #3D170D",
"_@	c #624132",
":@	c #6B574A",
"<@	c #736A5D",
"[@	c #79766D",
"}@	c #808078",
"|@	c #949594",
"1@	c #9A958D",
"2@	c #8D887F",
"3@	c #807C73",
"4@	c #787268",
"5@	c #6F675E",
"6@	c #696255",
"7@	c #66594C",
"8@	c #675243",
"9@	c #684B3A",
"0@	c #6B4330",
"a@	c #6F3B28",
"b@	c #4C1C0F",
"c@	c #4B1C0F",
"d@	c #FE9038",
"e@	c #FE9037",
"f@	c #FF8F39",
"g@	c #FD9237",
"h@	c #481B10",
"i@	c #461B10",
"j@	c #47180E",
"k@	c #42160D",
"l@	c #41190D",
"m@	c #42180D",
"n@	c #41180D",
"o@	c #5F3B2A",
"p@	c #664C3B",
"q@	c #6D5D50",
"r@	c #716B5E",
"s@	c #79736B",
"t@	c #7E7E77",
"u@	c #9A968F",
"v@	c #8F897F",
"w@	c #847D71",
"x@	c #777267",
"y@	c #70695B",
"z@	c #6B5F52",
"A@	c #675847",
"B@	c #684F3E",
"C@	c #674534",
"D@	c #713C28",
"E@	c #4C1B10",
"F@	c #FE923A",
"G@	c #FD9339",
"H@	c #FE9039",
"I@	c #FE9239",
"J@	c #FF903A",
"K@	c #FF8F38",
"L@	c #D95B2E",
"M@	c #D6592C",
"N@	c #47190E",
"O@	c #693624",
"P@	c #633928",
"Q@	c #64402D",
"R@	c #684A38",
"S@	c #6A5546",
"T@	c #6E6255",
"U@	c #736D62",
"V@	c #78776D",
"W@	c #807F7A",
"X@	c #8A8A86",
"Y@	c #969594",
"Z@	c #9B978D",
"`@	c #8F897D",
" #	c #847C70",
".#	c #797165",
"+#	c #70655A",
"@#	c #6B5C50",
"##	c #6A5444",
"$#	c #684A39",
"%#	c #673E2D",
"&#	c #FF9339",
"*#	c #FF9337",
"=#	c #FFCA44",
"-#	c #FF9139",
";#	c #FF913A",
">#	c #FF9238",
",#	c #FF9338",
"'#	c #DB5C2F",
")#	c #D65A2C",
"!#	c #44160D",
"~#	c #633728",
"{#	c #684433",
"]#	c #6A4F3F",
"^#	c #6C594B",
"/#	c #6D6455",
"(#	c #736D63",
"_#	c #777770",
":#	c #807F7B",
"<#	c #8B8A86",
"[#	c #989793",
"}#	c #9B988D",
"|#	c #90877D",
"1#	c #847C6D",
"2#	c #797063",
"3#	c #716658",
"4#	c #6D5D4D",
"5#	c #6C5143",
"6#	c #6B4635",
"7#	c #531D0F",
"8#	c #FED14E",
"9#	c #FE9339",
"0#	c #FECA42",
"a#	c #FD8236",
"b#	c #FE933A",
"c#	c #FF923B",
"d#	c #FF9239",
"e#	c #FD9138",
"f#	c #FF923A",
"g#	c #D85A2F",
"h#	c #FF8340",
"i#	c #4F1A0C",
"j#	c #6A4434",
"k#	c #6B5140",
"l#	c #6B5B4B",
"m#	c #6D6659",
"n#	c #716E63",
"o#	c #77766F",
"p#	c #7F807B",
"q#	c #8B8B86",
"r#	c #979795",
"s#	c #9E958C",
"t#	c #91877B",
"u#	c #867C6F",
"v#	c #7C7063",
"w#	c #736657",
"x#	c #6F5A4C",
"y#	c #6F5240",
"z#	c #6E4634",
"A#	c #4D1C11",
"B#	c #FD9338",
"C#	c #FF933A",
"D#	c #FF9138",
"E#	c #D7592C",
"F#	c #44180E",
"G#	c #6A4433",
"H#	c #6C5241",
"I#	c #6C5C4C",
"J#	c #6E6658",
"K#	c #80807A",
"L#	c #8C8A86",
"M#	c #989893",
"N#	c #91897B",
"O#	c #867D6F",
"P#	c #7D7162",
"Q#	c #776456",
"R#	c #725B4C",
"S#	c #71503E",
"T#	c #6F4233",
"U#	c #4C1B0F",
"V#	c #FF9236",
"W#	c #FE943A",
"X#	c #FF9039",
"Y#	c #FF9237",
"Z#	c #D85B2C",
"`#	c #6A4333",
" $	c #6D5242",
".$	c #6C5D4D",
"+$	c #6D655B",
"@$	c #706D63",
"#$	c #767771",
"$$	c #8A8987",
"%$	c #989694",
"&$	c #9E968D",
"*$	c #93887C",
"=$	c #877E6F",
"-$	c #7F7263",
";$	c #776757",
">$	c #745C4A",
",$	c #71513F",
"'$	c #704432",
")$	c #4C1C11",
"!$	c #FD9239",
"~$	c #FE9139",
"{$	c #FE9439",
"]$	c #FF933B",
"^$	c #D95A2D",
"/$	c #D85B2E",
"($	c #694534",
"_$	c #6C5343",
":$	c #6B5D4E",
"<$	c #6B6759",
"[$	c #6F6E64",
"}$	c #76776F",
"|$	c #7F7F7A",
"1$	c #898A85",
"2$	c #989895",
"3$	c #9C968D",
"4$	c #93887D",
"5$	c #877D6F",
"6$	c #807364",
"7$	c #786857",
"8$	c #735B4B",
"9$	c #724F3F",
"0$	c #704331",
"a$	c #4B1D10",
"b$	c #FFC541",
"c$	c #D9592E",
"d$	c #D75A2D",
"e$	c #431A0E",
"f$	c #684435",
"g$	c #6A5342",
"h$	c #695E50",
"i$	c #6B655C",
"j$	c #6F6C66",
"k$	c #75746E",
"l$	c #888A86",
"m$	c #979796",
"n$	c #9D978D",
"o$	c #928A7D",
"p$	c #877E70",
"q$	c #7D7063",
"r$	c #735A4B",
"s$	c #6E4231",
"t$	c #FEC641",
"u$	c #FFBB3D",
"v$	c #D85A2D",
"w$	c #45170C",
"x$	c #643829",
"y$	c #684839",
"z$	c #685445",
"A$	c #695D51",
"B$	c #6B665D",
"C$	c #6F6E65",
"D$	c #777670",
"E$	c #7F7F7B",
"F$	c #8A8B89",
"G$	c #9E978E",
"H$	c #938B7D",
"I$	c #897E70",
"J$	c #7F7063",
"K$	c #776759",
"L$	c #725D4D",
"M$	c #704F3D",
"N$	c #6D3F2D",
"O$	c #4A1C10",
"P$	c #FFC743",
"Q$	c #FFBA3C",
"R$	c #FFBD3C",
"S$	c #DA5B2F",
"T$	c #D75A2E",
"U$	c #44190E",
"V$	c #633D2E",
"W$	c #664C3E",
"X$	c #66554A",
"Y$	c #675F53",
"Z$	c #69655F",
"`$	c #6F6D67",
" %	c #7F807C",
".%	c #8A8B88",
"+%	c #989796",
"@%	c #9E988E",
"#%	c #928A7F",
"$%	c #877F70",
"%%	c #766758",
"&%	c #715B4B",
"*%	c #6F4E3D",
"=%	c #4C1D10",
"-%	c #FEC341",
";%	c #FFC341",
">%	c #FFC140",
",%	c #FE903A",
"'%	c #FE9138",
")%	c #FFBA3D",
"!%	c #FFBA3B",
"~%	c #D95C2D",
"{%	c #613B2A",
"]%	c #624537",
"^%	c #635042",
"/%	c #64574C",
"(%	c #656055",
"_%	c #68675D",
":%	c #6F6E67",
"<%	c #7F7F7D",
"[%	c #8A8B87",
"}%	c #979995",
"|%	c #9E9890",
"1%	c #928B7F",
"2%	c #888072",
"3%	c #7E7466",
"4%	c #77685C",
"5%	c #715C4B",
"6%	c #6F4C3B",
"7%	c #4C1F10",
"8%	c #FFC441",
"9%	c #FFC340",
"0%	c #FF9038",
"a%	c #FF8D38",
"b%	c #FFBB3E",
"c%	c #FFBC3D",
"d%	c #D85B2D",
"e%	c #471A0F",
"f%	c #643B2B",
"g%	c #634535",
"h%	c #634C3D",
"i%	c #635346",
"j%	c #625A4E",
"k%	c #666057",
"l%	c #6A6661",
"m%	c #706F69",
"n%	c #787874",
"o%	c #81817F",
"p%	c #8C8D8A",
"q%	c #979996",
"r%	c #9F9A90",
"s%	c #918B81",
"t%	c #878174",
"u%	c #7D7468",
"v%	c #776A5D",
"w%	c #715E50",
"x%	c #6E4E3F",
"y%	c #4D1F12",
"z%	c #FFC442",
"A%	c #FFC440",
"B%	c #FFC33E",
"C%	c #FFC23F",
"D%	c #FFC13E",
"E%	c #FFC23D",
"F%	c #FFBC3C",
"G%	c #DA5D2D",
"H%	c #4A1B0F",
"I%	c #643C2C",
"J%	c #644535",
"K%	c #63493B",
"L%	c #614F42",
"M%	c #61564A",
"N%	c #635D52",
"O%	c #656159",
"P%	c #6B6961",
"Q%	c #70706B",
"R%	c #787974",
"S%	c #80837E",
"T%	c #8B8D89",
"U%	c #999B97",
"V%	c #9D9A91",
"W%	c #908A81",
"X%	c #878077",
"Y%	c #7F7468",
"Z%	c #756B60",
"`%	c #716153",
" &	c #6D5342",
".&	c #4B1F12",
"+&	c #FFC540",
"@&	c #FFC83F",
"#&	c #FEC441",
"$&	c #FFC43E",
"%&	c #DF5F30",
"&&	c #DD5C30",
"*&	c #4B1A0F",
"=&	c #634333",
"-&	c #624B3B",
";&	c #624E3F",
">&	c #5F5346",
",&	c #61574C",
"'&	c #635D54",
")&	c #65625B",
"!&	c #696962",
"~&	c #71726C",
"{&	c #797A74",
"]&	c #81827F",
"^&	c #8D8C8B",
"/&	c #989A99",
"(&	c #9B9990",
"_&	c #908B83",
":&	c #888077",
"<&	c #7D766C",
"[&	c #746D61",
"}&	c #6F6355",
"|&	c #6C5A4B",
"1&	c #6A4F3E",
"2&	c #694332",
"3&	c #150706",
"4&	c #150707",
"5&	c #160808",
"6&	c #140706",
"7&	c #140807",
"8&	c #130606",
"9&	c #140705",
"0&	c #120504",
"a&	c #683B2B",
"b&	c #644031",
"c&	c #634A38",
"d&	c #634D40",
"e&	c #625243",
"f&	c #5F5449",
"g&	c #60594F",
"h&	c #615F54",
"i&	c #67645C",
"j&	c #6C6A64",
"k&	c #72726C",
"l&	c #7A7975",
"m&	c #828380",
"n&	c #8E8F8B",
"o&	c #999B98",
"p&	c #9A9991",
"q&	c #908D83",
"r&	c #878279",
"s&	c #7D776E",
"t&	c #746F65",
"u&	c #6E675A",
"v&	c #6E5E50",
"w&	c #6C5647",
"x&	c #6C4E3F",
"y&	c #6F4A38",
"z&	c #704937",
"A&	c #724936",
"B&	c #714836",
"C&	c #714936",
"D&	c #6F4534",
"E&	c #6E4535",
"F&	c #684735",
"G&	c #684B39",
"H&	c #654F40",
"I&	c #625244",
"J&	c #615548",
"K&	c #5E574C",
"L&	c #615B51",
"M&	c #626057",
"N&	c #686560",
"O&	c #6C6C67",
"P&	c #72726E",
"Q&	c #7B7D76",
"R&	c #848481",
"S&	c #8D8D8A",
"T&	c #999A98",
"U&	c #9A9791",
"V&	c #908C84",
"W&	c #86847A",
"X&	c #7E7A6F",
"Y&	c #767066",
"Z&	c #6F685F",
"`&	c #6E6458",
" *	c #6D5B4E",
".*	c #705848",
"+*	c #715644",
"@*	c #735343",
"#*	c #745441",
"$*	c #745340",
"%*	c #745040",
"&*	c #73513F",
"**	c #71513E",
"=*	c #6F4F3F",
"-*	c #6D5040",
";*	c #6A5343",
">*	c #645549",
",*	c #61594D",
"'*	c #605B51",
")*	c #635F56",
"!*	c #65635B",
"~*	c #696862",
"{*	c #6F6D69",
"]*	c #757470",
"^*	c #7C7E79",
"/*	c #858583",
"(*	c #8F8E8B",
"_*	c #9B9A99",
":*	c #9D9A94",
"<*	c #928E87",
"[*	c #88867D",
"}*	c #7F7D75",
"|*	c #79756C",
"1*	c #726E63",
"2*	c #70685C",
"3*	c #706457",
"4*	c #715F52",
"5*	c #755E4D",
"6*	c #755D4C",
"7*	c #765D4B",
"8*	c #755B4A",
"9*	c #755B47",
"0*	c #765847",
"a*	c #725745",
"b*	c #6E5747",
"c*	c #6C584B",
"d*	c #685C4C",
"e*	c #675B50",
"f*	c #645E54",
"g*	c #636057",
"h*	c #65645B",
"i*	c #68675F",
"j*	c #6C6B66",
"k*	c #72736D",
"l*	c #797873",
"m*	c #80817C",
"n*	c #878685",
"o*	c #8E908E",
"p*	c #9B9C99",
"q*	c #9D9C97",
"r*	c #93928B",
"s*	c #8C8982",
"t*	c #83807A",
"u*	c #7E7B72",
"v*	c #78756C",
"w*	c #766F66",
"x*	c #766C60",
"y*	c #766A5C",
"z*	c #786957",
"A*	c #796355",
"B*	c #796455",
"C*	c #7A6653",
"D*	c #786453",
"E*	c #7A6454",
"F*	c #786251",
"G*	c #766151",
"H*	c #736052",
"I*	c #726153",
"J*	c #706357",
"K*	c #6E6357",
"L*	c #6A675F",
"M*	c #6B6962",
"N*	c #6F6B66",
"O*	c #72716B",
"P*	c #787873",
"Q*	c #7D7D79",
"R*	c #858581",
"S*	c #92938F",
"T*	c #9C9D9A",
"U*	c #9F9F98",
"V*	c #97968E",
"W*	c #8F8F89",
"X*	c #8A8880",
"Y*	c #848179",
"Z*	c #807B72",
"`*	c #7F786E",
" =	c #7E7568",
".=	c #7E7364",
"+=	c #807160",
"@=	c #80725E",
"#=	c #7F705E",
"$=	c #7E6E5D",
"%=	c #826E5D",
"&=	c #806E5D",
"*=	c #7E6D5C",
"==	c #7F6B5B",
"-=	c #7B6C5D",
";=	c #796B5D",
">=	c #776D60",
",=	c #756E62",
"'=	c #746E65",
")=	c #726F67",
"!=	c #73726A",
"~=	c #75766F",
"{=	c #797972",
"]=	c #82837D",
"^=	c #898A86",
"/=	c #8E908C",
"(=	c #959694",
"_=	c #A3A29C",
":=	c #9C9B93",
"<=	c #95948C",
"[=	c #908E88",
"}=	c #88857B",
"|=	c #888378",
"1=	c #877E72",
"2=	c #877C6F",
"3=	c #887B6B",
"4=	c #887B69",
"5=	c #887A68",
"6=	c #877866",
"7=	c #877966",
"8=	c #877967",
"9=	c #867866",
"0=	c #867566",
"a=	c #867567",
"b=	c #837567",
"c=	c #81786A",
"d=	c #7D7970",
"e=	c #7D7A71",
"f=	c #7D7B74",
"g=	c #7F7E79",
"h=	c #85867F",
"i=	c #898984",
"j=	c #8F908B",
"k=	c #949490",
"l=	c #999996",
"m=	c #A2A39F",
"n=	c #A8A6A1",
"o=	c #A09F99",
"p=	c #9E9B93",
"q=	c #949289",
"r=	c #928F84",
"s=	c #938D81",
"t=	c #918779",
"u=	c #938778",
"v=	c #938574",
"w=	c #938474",
"x=	c #928372",
"y=	c #948472",
"z=	c #948372",
"A=	c #928273",
"B=	c #918272",
"C=	c #908372",
"D=	c #8D8374",
"E=	c #8D8477",
"F=	c #8B857B",
"G=	c #8A867C",
"H=	c #88877E",
"I=	c #888780",
"J=	c #898983",
"K=	c #8C8B85",
"L=	c #93938D",
"M=	c #979793",
"N=	c #9B9B96",
"O=	c #9FA09B",
"P=	c #A6A4A3",
"  . + @ # $ % & * = - ; > , ' ) ! ~ { ] ^ / ( _ : < [ } | 1 . 2 ",
"3 4 5 6 7 8 9 0 a b c d e f g h i j k l m n o p q r s t u v w x ",
"y z A B C D E F G H I J K L M M N O P Q R S M T U V W X Y Z `  .",
"..+.@.#.$.%.&.*.=.-.;.>.>.,.'.).!.~.{.].^./.(._.:.<.[.}.|.1.Z 2.",
"3.t 4.5.&.6.7.8.9.0.a.b.c.d.e.f.g.h.i.j.k.l.m.n.o.p.q.r.s.|.t.v ",
"u.v.w.x.y.z.A.B.C.D.E.F.G.H.I.J.K.L.M.N.O.P.Q.R.G.S.T.U.V.W.X.Y.",
"Z.`. +.+++@+#+$+%+&+*+=+-+;+>+,+'+)+!+~+{+]+^+/+(+_+:+<+[+}+|+1+",
"2+3+4+5+6+7+8+9+0+a+b+c+d+e+f+g+h+i+j+k+l+m+n+o+p+q+r+s+U.t+u+v+",
"w+x+y+z+A+B+C+D+E+F+G+H+I+J+K+L+M+N+O+P+Q+m+R+S+T+U+V+W+X+Y+Z+`+",
" @.@+@@@#@$@%@&@*@=@-@;@>@,@'@)@!@~@{@]@O+^@P+/@(@_@:@<@[@}@#.|@",
"1@2@3@4@5@6@7@8@9@0@a@b@c@d@e@f@g@h@i@j@k@l@m@n@o@p@q@r@s@t@u+`+",
"u@v@w@x@y@z@A@B@C@D@E@F@G@f@H@I@J@K@L@M@N@O@P@Q@R@S@T@U@V@W@X@Y@",
"Z@`@ #.#+#@###$#%#'@&#*#=#-#;#>#&#;#,#'#)#!#~#{#]#^#/#(#_#:#<#[#",
"}#|#1#2#3#4#5#6#7#8#9#0#a#I@b#c#d#e#f#f#g#h#i#j#k#l#m#n#o#p#q#r#",
"s#t#u#v#w#x#y#z#A#d#B#-#C#d#>#-#;#-#-#D#L@E#F#G#H#I#J#6+o#K#L#M#",
": N#O#P#Q#R#S#T#U#d#f#V#W#D#;#I@X#Y#b#f#Z#E#!+`# $.$+$@$#$p#$$%$",
"&$*$=$-$;$>$,$'$)$!$C#F@C#Y#~$~$f#{$]$f#^$/$!+($_$:$<$[$}$|$1$2$",
"3$4$5$6$7$8$9$0$a$b$d@d#9#f#I@f#D#-#I@L@c$d$e$f$g$h$i$j$k$W@l$m$",
"n$o$p$q$e.r$,$s$,@t$d#Y#c#c#f#D#d#I@u$L@v$w$x$y$z$A$B$C$D$E$F$r#",
"G$H$I$J$K$L$M$N$O$P$b$]$c#d#J@D#;#Q$R$S$T$U$V$W$X$Y$Z$`$#$ %.%+%",
"@%#%$%q$%%&%*%=%-%;%>%b#f@,%f@'%)%!%~%^$F#{%]%^%/%(%_%:%#$<%[%}%",
"|%1%2%3%4%5%6%7%>%8%;%9%-#0%a%b%c%d%g#e%f%g%h%i%j%k%l%m%n%o%p%q%",
"r%s%t%u%v%w%x%y%z%A%9%B%C%D%E%F%G%^$H%I%J%K%L%M%N%O%P%Q%R%S%T%U%",
"V%W%X%Y%Z%`% &j#.&+&@&#&-%$&R$%&&&*&P@=&-&;&>&,&'&)&!&~&{&]&^&/&",
"(&_&:&<&[&}&|&1&2&3&4&5&6&7&8&9&0&a&b&c&d&e&f&g&h&i&j&k&l&m&n&o&",
"p&q&r&s&t&u&v&w&x&y&z&A&B&C&A&D&E&F&G&H&I&J&K&L&M&N&O&P&Q&R&S&T&",
"U&V&W&X&Y&Z&`& *.*+*@*#*$*%*&***=*-*;*&@>*,*'*)*!*~*{*]*^*/*(*_*",
":*<*[*}*|*1*2*3*4*5*6*7*8*i.9*0*a*b*c*d*e*f*g*h*i*j*k*l*m*n*o*p*",
"q*r*s*t*u*v*w*x*y*z*A*B*C*D*E*F*G*H*I*J*K*B+L*M*N*O*P*Q*R*[%S*T*",
"U*V*W*X*Y*Z*`* =.=+=@=#=$=%=&=*===-=;=>=,='=)=!=~={=t@]=^=/=(=2.",
"_=:=<=[=.@}=|=1=2=3=4=5=6=7=8=9=0=a=b=c=`*d=e=f=g=K#h=i=j=k=l=m=",
"n=o=p= @q=r=s=e t=u=v=w=x=y=z=A=B=C=D=E=F=G=H=I=J=K=`.L=M=N=O=P="};
